<?xml version="1.0" standalone="no"?><!DOCTYPE svg PUBLIC "-//W3C//DTD SVG 1.1//EN" "http://www.w3.org/Graphics/SVG/1.1/DTD/svg11.dtd"><svg t="1646539079040" class="icon" viewBox="0 0 1024 1024" version="1.1" xmlns="http://www.w3.org/2000/svg" p-id="19107" xmlns:xlink="http://www.w3.org/1999/xlink" width="200" height="200"><defs><style type="text/css"></style></defs><path d="M917.9 375.9L716.5 140.7a35.35 35.35 0 0 0-26.8-12.3H333.9c-10.4 0-20.2 4.5-26.9 12.4L107.2 376c-10.8 12.7-11.2 31.4-1 44.5l377.7 485.3c6.7 8.6 16.9 13.6 27.8 13.6 10.9 0 21.1-4.9 27.8-13.6l379.3-485.3c10.4-13.1 9.9-31.9-0.9-44.6zM495.4 696.8l-169-281.4c-3.6-6-10.1-9.7-17.1-9.7h-32.7c-11 0-20-9-20-20v-24.4c0-11 9-20 20-20h96.1c7.2 0 13.8 3.9 17.4 10.1l123.1 217c7.5 13.1 26.2 13.6 34.3 0.8l138.4-218.7c3.7-5.8 10-9.3 16.9-9.3h45.9c11 0 20 9 20 20v24.4c0 11-9 20-20 20H716c-7 0-13.5 3.7-17.1 9.7L529.7 696.8c-7.7 12.9-26.5 12.9-34.3 0z m399.8-294.7L527.7 872.3l311.5-459.1c5.2-6.7 5-16.2-0.5-22.6L661.4 226.9c-3.4-4-8.3-6.2-13.6-6.2H334.7c-5.2 0-10.2 2.3-13.6 6.3l-168 141.4 176.8-208.2c1-1.2 2.5-1.9 4-1.9h355.8c1.5 0 3 0.7 4 1.8l201.4 235.3c1.6 2 1.7 4.8 0.1 6.7z" fill="#2680F0" p-id="19108"></path><path d="M698.8 415.4c3.6-6 10.1-9.7 17.1-9.7h32.7c11 0 20-9 20-20v-24.4c0-11-9-20-20-20h-45.9c-6.9 0-13.2 3.5-16.9 9.3L547.4 569.3c-8.1 12.8-26.8 12.3-34.3-0.8L390 351.4c-3.6-6.3-10.2-10.1-17.4-10.1h-96.1c-11 0-20 9-20 20v24.4c0 11 9 20 20 20h32.7c7 0 13.5 3.7 17.1 9.7l169.1 281.4c7.8 12.9 26.5 12.9 34.3 0l169.1-281.4z" fill="#FFFFFF" p-id="19109"></path></svg>