<svg class="Zi Zi--VIP css-139b4gy" fill="currentColor" viewBox="0 0 24 24" width="24" height="24">
  <defs>
    <linearGradient id="id-3811055512-a" x1="11.015%" x2="87.655%" y1="18.594%" y2="96.14%">
      <stop offset="0%" stop-color="#81ecec"></stop>
      <stop offset="100%" stop-color="#00a8ff"></stop>
    </linearGradient>
  </defs>
  <path fill="url(#id-3811055512-a)" d="M21.351 4.858A3.115 3.115 0 0 1 22.93 7.56v8.88a3.115 3.115 0 0 1-1.578 2.702l-7.774 4.44a3.185 3.185 0 0 1-3.154 0l-7.774-4.44A3.115 3.115 0 0 1 1.07 16.44V7.56c0-1.115.602-2.145 1.578-2.702l7.774-4.44a3.185 3.185 0 0 1 3.154 0l7.774 4.44zm-2.475 1.904L13.16 3.507a2.347 2.347 0 0 0-2.32 0L5.124 6.762a2.283 2.283 0 0 0-1.16 1.982v6.512c0 .817.442 1.573 1.16 1.982l5.716 3.255a2.347 2.347 0 0 0 2.32 0l5.716-3.255a2.283 2.283 0 0 0 1.16-1.982V8.744c0-.817-.442-1.573-1.16-1.982zm-9.874 4.13L12 5.76l2.998 5.131 2.466-2.12v6.343c0 .49-.4.886-.893.886H7.429a.89.89 0 0 1-.893-.887V8.771l2.466 2.12z"></path>
</svg>